<svg width="102" height="35" viewBox="0 0 102 35" fill="none" xmlns="http://www.w3.org/2000/svg">
<path d="M16.8605 7.90698H17.9767V9.02326H16.8605V7.90698ZM15.7442 7.90698H16.8605V9.02326H15.7442V7.90698ZM15.7442 9.02326H16.8605V10.1395H15.7442V9.02326ZM15.7442 10.1395H16.8605V11.2558H15.7442V10.1395ZM16.8605 10.1395H17.9767V11.2558H16.8605V10.1395ZM16.8605 9.02326H17.9767V10.1395H16.8605V9.02326ZM12.3953 11.2558H13.5116V12.3721H12.3953V11.2558ZM12.3953 12.3721H13.5116V13.4884H12.3953V12.3721ZM12.3953 13.4884H13.5116V14.6047H12.3953V13.4884ZM11.2791 13.4884H12.3953V14.6047H11.2791V13.4884ZM11.2791 12.3721H12.3953V13.4884H11.2791V12.3721ZM11.2791 11.2558H12.3953V12.3721H11.2791V11.2558ZM9.04651 11.2558H10.1628V12.3721H9.04651V11.2558ZM9.04651 12.3721H10.1628V13.4884H9.04651V12.3721ZM9.04651 13.4884H10.1628V14.6047H9.04651V13.4884ZM9.04651 14.6047H10.1628V15.7209H9.04651V14.6047ZM10.1628 13.4884H11.2791V14.6047H10.1628V13.4884ZM10.1628 12.3721H11.2791V13.4884H10.1628V12.3721ZM10.1628 11.2558H11.2791V12.3721H10.1628V11.2558ZM7.93023 13.4884H9.04651V14.6047H7.93023V13.4884ZM6.81395 13.4884H7.93023V14.6047H6.81395V13.4884ZM5.69767 13.4884H6.81395V14.6047H5.69767V13.4884ZM4.5814 13.4884H5.69767V14.6047H4.5814V13.4884ZM4.5814 14.6047H5.69767V15.7209H4.5814V14.6047ZM5.69767 14.6047H6.81395V15.7209H5.69767V14.6047ZM6.81395 14.6047H7.93023V15.7209H6.81395V14.6047ZM7.93023 14.6047H9.04651V15.7209H7.93023V14.6047ZM10.1628 14.6047H11.2791V15.7209H10.1628V14.6047ZM11.2791 14.6047H12.3953V15.7209H11.2791V14.6047ZM12.3953 14.6047H13.5116V15.7209H12.3953V14.6047ZM20.2093 0.0930243H21.3256V1.2093H20.2093V0.0930243ZM21.3256 0.0930243H22.4419V1.2093H21.3256V0.0930243ZM21.3256 1.2093H22.4419V2.32558H21.3256V1.2093ZM21.3256 2.32558H22.4419V3.44186H21.3256V2.32558ZM21.3256 3.44186H22.4419V4.55814H21.3256V3.44186ZM20.2093 3.44186H21.3256V4.55814H20.2093V3.44186ZM20.2093 4.55814H21.3256V5.67442H20.2093V4.55814ZM20.2093 5.67442H21.3256V6.7907H20.2093V5.67442ZM20.2093 6.7907H21.3256V7.90698H20.2093V6.7907ZM20.2093 7.90698H21.3256V9.02326H20.2093V7.90698ZM20.2093 9.02326H21.3256V10.1395H20.2093V9.02326ZM20.2093 10.1395H21.3256V11.2558H20.2093V10.1395ZM21.3256 9.02326H22.4419V10.1395H21.3256V9.02326ZM21.3256 7.90698H22.4419V9.02326H21.3256V7.90698ZM21.3256 6.7907H22.4419V7.90698H21.3256V6.7907ZM21.3256 5.67442H22.4419V6.7907H21.3256V5.67442ZM21.3256 4.55814H22.4419V5.67442H21.3256V4.55814ZM21.3256 10.1395H22.4419V11.2558H21.3256V10.1395ZM22.4419 2.32558H23.5581V3.44186H22.4419V2.32558ZM23.5581 2.32558H24.6744V3.44186H23.5581V2.32558ZM23.5581 3.44186H24.6744V4.55814H23.5581V3.44186ZM23.5581 4.55814H24.6744V5.67442H23.5581V4.55814ZM23.5581 5.67442H24.6744V6.7907H23.5581V5.67442ZM22.4419 5.67442H23.5581V6.7907H22.4419V5.67442ZM22.4419 6.7907H23.5581V7.90698H22.4419V6.7907ZM22.4419 7.90698H23.5581V9.02326H22.4419V7.90698ZM22.4419 9.02326H23.5581V10.1395H22.4419V9.02326ZM22.4419 4.55814H23.5581V5.67442H22.4419V4.55814ZM22.4419 3.44186H23.5581V4.55814H22.4419V3.44186ZM22.4419 10.1395H23.5581V11.2558H22.4419V10.1395ZM23.5581 9.02326H24.6744V10.1395H23.5581V9.02326ZM23.5581 7.90698H24.6744V9.02326H23.5581V7.90698ZM23.5581 6.7907H24.6744V7.90698H23.5581V6.7907ZM20.2093 11.2558H21.3256V12.3721H20.2093V11.2558ZM20.2093 12.3721H21.3256V13.4884H20.2093V12.3721ZM21.3256 11.2558H22.4419V12.3721H21.3256V11.2558ZM24.6744 2.32558H25.7907V3.44186H24.6744V2.32558ZM25.7907 2.32558H26.907V3.44186H25.7907V2.32558ZM24.6744 3.44186H25.7907V4.55814H24.6744V3.44186ZM26.907 1.2093H28.0233V2.32558H26.907V1.2093ZM22.4419 1.2093H23.5581V2.32558H22.4419V1.2093ZM25.7907 1.2093H26.907V2.32558H25.7907V1.2093ZM16.8605 2.32558H17.9767V3.44186H16.8605V2.32558ZM16.8605 3.44186H17.9767V4.55814H16.8605V3.44186ZM15.7442 3.44186H16.8605V4.55814H15.7442V3.44186ZM14.6279 4.55814H15.7442V5.67442H14.6279V4.55814ZM14.6279 5.67442H15.7442V6.7907H14.6279V5.67442ZM13.5116 5.67442H14.6279V6.7907H13.5116V5.67442ZM17.9767 1.2093H19.093V2.32558H17.9767V1.2093ZM19.093 0.0930243H20.2093V1.2093H19.093V0.0930243ZM19.093 1.2093H20.2093V2.32558H19.093V1.2093ZM20.2093 1.2093H21.3256V2.32558H20.2093V1.2093ZM20.2093 2.32558H21.3256V3.44186H20.2093V2.32558ZM26.907 0.0930243H28.0233V1.2093H26.907V0.0930243ZM15.7442 4.55814H16.8605V5.67442H15.7442V4.55814ZM13.5116 6.7907H14.6279V7.90698H13.5116V6.7907ZM17.9767 2.32558H19.093V3.44186H17.9767V2.32558ZM19.093 13.4884H20.2093V14.6047H19.093V13.4884ZM17.9767 13.4884H19.093V14.6047H17.9767V13.4884ZM17.9767 14.6047H19.093V15.7209H17.9767V14.6047ZM19.093 14.6047H20.2093V15.7209H19.093V14.6047ZM16.8605 13.4884H17.9767V14.6047H16.8605V13.4884ZM15.7442 13.4884H16.8605V14.6047H15.7442V13.4884ZM15.7442 14.6047H16.8605V15.7209H15.7442V14.6047ZM16.8605 14.6047H17.9767V15.7209H16.8605V14.6047ZM9.04651 15.7209H10.1628V16.8372H9.04651V15.7209ZM9.04651 16.8372H10.1628V17.9535H9.04651V16.8372ZM10.1628 16.8372H11.2791V17.9535H10.1628V16.8372ZM10.1628 15.7209H11.2791V16.8372H10.1628V15.7209ZM10.1628 17.9535H11.2791V19.0698H10.1628V17.9535ZM10.1628 19.0698H11.2791V20.186H10.1628V19.0698ZM9.04651 19.0698H10.1628V20.186H9.04651V19.0698ZM9.04651 17.9535H10.1628V19.0698H9.04651V17.9535ZM11.2791 17.9535H12.3953V19.0698H11.2791V17.9535ZM11.2791 16.8372H12.3953V17.9535H11.2791V16.8372ZM11.2791 15.7209H12.3953V16.8372H11.2791V15.7209ZM12.3953 15.7209H13.5116V16.8372H12.3953V15.7209ZM12.3953 16.8372H13.5116V17.9535H12.3953V16.8372ZM12.3953 17.9535H13.5116V19.0698H12.3953V17.9535ZM12.3953 19.0698H13.5116V20.186H12.3953V19.0698ZM11.2791 19.0698H12.3953V20.186H11.2791V19.0698ZM15.7442 17.9535H16.8605V19.0698H15.7442V17.9535ZM16.8605 17.9535H17.9767V19.0698H16.8605V17.9535ZM16.8605 19.0698H17.9767V20.186H16.8605V19.0698ZM15.7442 19.0698H16.8605V20.186H15.7442V19.0698ZM15.7442 20.186H16.8605V21.3023H15.7442V20.186ZM16.8605 20.186H17.9767V21.3023H16.8605V20.186ZM15.7442 22.4186H16.8605V23.5349H15.7442V22.4186ZM20.2093 15.7209H21.3256V16.8372H20.2093V15.7209ZM21.3256 15.7209H22.4419V16.8372H21.3256V15.7209ZM21.3256 16.8372H22.4419V17.9535H21.3256V16.8372ZM21.3256 17.9535H22.4419V19.0698H21.3256V17.9535ZM21.3256 19.0698H22.4419V20.186H21.3256V19.0698ZM20.2093 19.0698H21.3256V20.186H20.2093V19.0698ZM20.2093 20.186H21.3256V21.3023H20.2093V20.186ZM20.2093 17.9535H21.3256V19.0698H20.2093V17.9535ZM20.2093 16.8372H21.3256V17.9535H20.2093V16.8372ZM20.2093 22.4186H21.3256V23.5349H20.2093V22.4186ZM21.3256 22.4186H22.4419V23.5349H21.3256V22.4186ZM21.3256 20.186H22.4419V21.3023H21.3256V20.186ZM22.4419 16.8372H23.5581V17.9535H22.4419V16.8372ZM23.5581 17.9535H24.6744V19.0698H23.5581V17.9535ZM23.5581 19.0698H24.6744V20.186H23.5581V19.0698ZM22.4419 19.0698H23.5581V20.186H22.4419V19.0698ZM22.4419 17.9535H23.5581V19.0698H22.4419V17.9535ZM22.4419 20.186H23.5581V21.3023H22.4419V20.186ZM23.5581 20.186H24.6744V21.3023H23.5581V20.186ZM22.4419 22.4186H23.5581V23.5349H22.4419V22.4186ZM23.5581 22.4186H24.6744V23.5349H23.5581V22.4186ZM9.04651 20.186H10.1628V21.3023H9.04651V20.186ZM10.1628 20.186H11.2791V21.3023H10.1628V20.186ZM11.2791 20.186H12.3953V21.3023H11.2791V20.186ZM11.2791 22.4186H12.3953V23.5349H11.2791V22.4186ZM12.3953 22.4186H13.5116V23.5349H12.3953V22.4186ZM12.3953 20.186H13.5116V21.3023H12.3953V20.186ZM10.1628 22.4186H11.2791V23.5349H10.1628V22.4186ZM9.04651 21.3023H10.1628V22.4186H9.04651V21.3023ZM10.1628 21.3023H11.2791V22.4186H10.1628V21.3023ZM11.2791 21.3023H12.3953V22.4186H11.2791V21.3023ZM12.3953 21.3023H13.5116V22.4186H12.3953V21.3023ZM20.2093 21.3023H21.3256V22.4186H20.2093V21.3023ZM21.3256 21.3023H22.4419V22.4186H21.3256V21.3023ZM22.4419 21.3023H23.5581V22.4186H22.4419V21.3023ZM23.5581 21.3023H24.6744V22.4186H23.5581V21.3023ZM20.2093 23.5349H21.3256V24.6512H20.2093V23.5349ZM20.2093 24.6512H21.3256V25.7674H20.2093V24.6512ZM21.3256 24.6512H22.4419V25.7674H21.3256V24.6512ZM22.4419 24.6512H23.5581V25.7674H22.4419V24.6512ZM23.5581 24.6512H24.6744V25.7674H23.5581V24.6512ZM23.5581 23.5349H24.6744V24.6512H23.5581V23.5349ZM22.4419 23.5349H23.5581V24.6512H22.4419V23.5349ZM21.3256 23.5349H22.4419V24.6512H21.3256V23.5349ZM23.5581 25.7674H24.6744V26.8837H23.5581V25.7674ZM22.4419 25.7674H23.5581V26.8837H22.4419V25.7674ZM22.4419 26.8837H23.5581V28H22.4419V26.8837ZM23.5581 26.8837H24.6744V28H23.5581V26.8837ZM24.6744 26.8837H25.7907V28H24.6744V26.8837ZM24.6744 25.7674H25.7907V26.8837H24.6744V25.7674ZM25.7907 25.7674H26.907V26.8837H25.7907V25.7674ZM25.7907 26.8837H26.907V28H25.7907V26.8837ZM28.0233 23.5349H29.1395V24.6512H28.0233V23.5349ZM28.0233 24.6512H29.1395V25.7674H28.0233V24.6512ZM26.907 24.6512H28.0233V25.7674H26.907V24.6512ZM12.3953 5.67442H13.5116V6.7907H12.3953V5.67442ZM12.3953 6.7907H13.5116V7.90698H12.3953V6.7907ZM12.3953 7.90698H13.5116V9.02326H12.3953V7.90698ZM12.3953 9.02326H13.5116V10.1395H12.3953V9.02326ZM12.3953 10.1395H13.5116V11.2558H12.3953V10.1395ZM11.2791 10.1395H12.3953V11.2558H11.2791V10.1395ZM9.04651 6.7907H10.1628V7.90698H9.04651V6.7907ZM9.04651 10.1395H10.1628V11.2558H9.04651V10.1395ZM10.1628 10.1395H11.2791V11.2558H10.1628V10.1395ZM10.1628 2.32558H11.2791V3.44186H10.1628V2.32558ZM10.1628 3.44186H11.2791V4.55814H10.1628V3.44186ZM11.2791 2.32558H12.3953V3.44186H11.2791V2.32558ZM11.2791 3.44186H12.3953V4.55814H11.2791V3.44186ZM12.3953 3.44186H13.5116V4.55814H12.3953V3.44186ZM12.3953 4.55814H13.5116V5.67442H12.3953V4.55814ZM11.2791 4.55814H12.3953V5.67442H11.2791V4.55814ZM9.04651 5.67442H10.1628V6.7907H9.04651V5.67442ZM9.04651 3.44186H10.1628V4.55814H9.04651V3.44186ZM9.04651 4.55814H10.1628V5.67442H9.04651V4.55814ZM9.04651 0.0930243H10.1628V1.2093H9.04651V0.0930243ZM9.04651 1.2093H10.1628V2.32558H9.04651V1.2093ZM10.1628 1.2093H11.2791V2.32558H10.1628V1.2093ZM7.93023 0.0930243H9.04651V1.2093H7.93023V0.0930243ZM6.81395 0.0930243H7.93023V1.2093H6.81395V0.0930243ZM7.93023 1.2093H9.04651V2.32558H7.93023V1.2093ZM5.69767 1.2093H6.81395V2.32558H5.69767V1.2093ZM5.69767 0.0930243H6.81395V1.2093H5.69767V0.0930243ZM9.04651 2.32558H10.1628V3.44186H9.04651V2.32558ZM7.93023 2.32558H9.04651V3.44186H7.93023V2.32558ZM5.69767 2.32558H6.81395V3.44186H5.69767V2.32558ZM7.93023 3.44186H9.04651V4.55814H7.93023V3.44186ZM6.81395 3.44186H7.93023V4.55814H6.81395V3.44186ZM5.69767 3.44186H6.81395V4.55814H5.69767V3.44186ZM6.81395 2.32558H7.93023V3.44186H6.81395V2.32558ZM6.81395 1.2093H7.93023V2.32558H6.81395V1.2093ZM4.5814 9.02326H5.69767V10.1395H4.5814V9.02326ZM5.69767 9.02326H6.81395V10.1395H5.69767V9.02326ZM6.81395 9.02326H7.93023V10.1395H6.81395V9.02326ZM7.93023 9.02326H9.04651V10.1395H7.93023V9.02326ZM7.93023 10.1395H9.04651V11.2558H7.93023V10.1395ZM6.81395 10.1395H7.93023V11.2558H6.81395V10.1395ZM5.69767 10.1395H6.81395V11.2558H5.69767V10.1395ZM4.5814 10.1395H5.69767V11.2558H4.5814V10.1395ZM9.04651 7.90698H10.1628V9.02326H9.04651V7.90698ZM9.04651 9.02326H10.1628V10.1395H9.04651V9.02326ZM10.1628 4.55814H11.2791V5.67442H10.1628V4.55814ZM10.1628 5.67442H11.2791V6.7907H10.1628V5.67442ZM10.1628 6.7907H11.2791V7.90698H10.1628V6.7907ZM10.1628 7.90698H11.2791V9.02326H10.1628V7.90698ZM10.1628 9.02326H11.2791V10.1395H10.1628V9.02326ZM11.2791 9.02326H12.3953V10.1395H11.2791V9.02326ZM11.2791 7.90698H12.3953V9.02326H11.2791V7.90698ZM11.2791 6.7907H12.3953V7.90698H11.2791V6.7907ZM11.2791 5.67442H12.3953V6.7907H11.2791V5.67442ZM13.5116 4.55814H14.6279V5.67442H13.5116V4.55814ZM6.81395 4.55814H7.93023V5.67442H6.81395V4.55814ZM7.93023 5.67442H9.04651V6.7907H7.93023V5.67442ZM7.93023 4.55814H9.04651V5.67442H7.93023V4.55814ZM12.3953 26.8837H13.5116V28H12.3953V26.8837ZM11.2791 26.8837H12.3953V28H11.2791V26.8837ZM11.2791 25.7674H12.3953V26.8837H11.2791V25.7674ZM12.3953 25.7674H13.5116V26.8837H12.3953V25.7674ZM13.5116 24.6512H14.6279V25.7674H13.5116V24.6512ZM14.6279 23.5349H15.7442V24.6512H14.6279V23.5349ZM14.6279 24.6512H15.7442V25.7674H14.6279V24.6512ZM15.7442 21.3023H16.8605V22.4186H15.7442V21.3023ZM16.8605 21.3023H17.9767V22.4186H16.8605V21.3023ZM16.8605 22.4186H17.9767V23.5349H16.8605V22.4186ZM7.93023 23.5349H9.04651V24.6512H7.93023V23.5349ZM6.81395 23.5349H7.93023V24.6512H6.81395V23.5349ZM6.81395 24.6512H7.93023V25.7674H6.81395V24.6512ZM7.93023 24.6512H9.04651V25.7674H7.93023V24.6512ZM10.1628 25.7674H11.2791V26.8837H10.1628V25.7674ZM9.04651 25.7674H10.1628V26.8837H9.04651V25.7674ZM9.04651 26.8837H10.1628V28H9.04651V26.8837ZM10.1628 26.8837H11.2791V28H10.1628V26.8837ZM9.04651 23.5349H10.1628V24.6512H9.04651V23.5349ZM10.1628 23.5349H11.2791V24.6512H10.1628V23.5349ZM12.3953 24.6512H13.5116V25.7674H12.3953V24.6512ZM11.2791 24.6512H12.3953V25.7674H11.2791V24.6512ZM10.1628 24.6512H11.2791V25.7674H10.1628V24.6512ZM9.04651 24.6512H10.1628V25.7674H9.04651V24.6512ZM7.93023 22.4186H9.04651V23.5349H7.93023V22.4186ZM6.81395 22.4186H7.93023V23.5349H6.81395V22.4186ZM5.69767 23.5349H6.81395V24.6512H5.69767V23.5349ZM4.5814 23.5349H5.69767V24.6512H4.5814V23.5349ZM4.5814 24.6512H5.69767V25.7674H4.5814V24.6512ZM5.69767 24.6512H6.81395V25.7674H5.69767V24.6512ZM3.46512 23.5349H4.5814V24.6512H3.46512V23.5349ZM3.46512 24.6512H4.5814V25.7674H3.46512V24.6512ZM2.34884 24.6512H3.46512V25.7674H2.34884V24.6512ZM2.34884 23.5349H3.46512V24.6512H2.34884V23.5349ZM1.23256 25.7674H2.34884V26.8837H1.23256V25.7674ZM0.116279 25.7674H1.23256V26.8837H0.116279V25.7674ZM0.116279 26.8837H1.23256V28H0.116279V26.8837ZM1.23256 24.6512H2.34884V25.7674H1.23256V24.6512ZM4.5814 22.4186H5.69767V23.5349H4.5814V22.4186ZM5.69767 22.4186H6.81395V23.5349H5.69767V22.4186ZM13.5116 25.7674H14.6279V26.8837H13.5116V25.7674ZM15.7442 23.5349H16.8605V24.6512H15.7442V23.5349ZM7.93023 25.7674H9.04651V26.8837H7.93023V25.7674ZM6.81395 25.7674H7.93023V26.8837H6.81395V25.7674ZM9.04651 22.4186H10.1628V23.5349H9.04651V22.4186ZM5.69767 25.7674H6.81395V26.8837H5.69767V25.7674ZM6.81395 26.8837H7.93023V28H6.81395V26.8837ZM7.93023 26.8837H9.04651V28H7.93023V26.8837ZM21.3256 25.7674H22.4419V26.8837H21.3256V25.7674ZM26.907 25.7674H28.0233V26.8837H26.907V25.7674ZM24.6744 24.6512H25.7907V25.7674H24.6744V24.6512ZM19.093 2.32558H20.2093V3.44186H19.093V2.32558ZM19.093 3.44186H20.2093V4.55814H19.093V3.44186ZM17.9767 3.44186H19.093V4.55814H17.9767V3.44186ZM19.093 4.55814H20.2093V5.67442H19.093V4.55814ZM4.5814 1.2093H5.69767V2.32558H4.5814V1.2093ZM3.46512 2.32558H4.5814V3.44186H3.46512V2.32558ZM4.5814 2.32558H5.69767V3.44186H4.5814V2.32558ZM2.34884 1.2093H3.46512V2.32558H2.34884V1.2093ZM1.23256 1.2093H2.34884V2.32558H1.23256V1.2093ZM1.23256 0.0930243H2.34884V1.2093H1.23256V0.0930243ZM2.34884 2.32558H3.46512V3.44186H2.34884V2.32558ZM3.46512 3.44186H4.5814V4.55814H3.46512V3.44186ZM4.5814 3.44186H5.69767V4.55814H4.5814V3.44186ZM44.7685 10.1395H43.6523V9.02326H44.7685V10.1395ZM43.6523 10.1395H42.536V9.02326H43.6523V10.1395ZM45.8848 11.2558H44.7685V10.1395H45.8848V11.2558ZM44.7685 11.2558H43.6523V10.1395H44.7685V11.2558ZM43.6523 11.2558H42.536V10.1395H43.6523V11.2558ZM42.536 11.2558H41.4197V10.1395H42.536V11.2558ZM47.0011 12.3721H45.8848V11.2558H47.0011V12.3721ZM45.8848 12.3721H44.7685V11.2558H45.8848V12.3721ZM45.8848 13.4884H44.7685V12.3721H45.8848V13.4884ZM44.7685 13.4884H43.6523V12.3721H44.7685V13.4884ZM44.7685 12.3721H43.6523V11.2558H44.7685V12.3721ZM43.6523 12.3721H42.536V11.2558H43.6523V12.3721ZM42.536 12.3721H41.4197V11.2558H42.536V12.3721ZM42.536 13.4884H41.4197V12.3721H42.536V13.4884ZM41.4197 12.3721H40.3034V11.2558H41.4197V12.3721ZM43.6523 13.4884H42.536V12.3721H43.6523V13.4884ZM44.7685 14.6047H43.6523V13.4884H44.7685V14.6047ZM43.6523 14.6047H42.536V13.4884H43.6523V14.6047ZM42.536 14.6047H41.4197V13.4884H42.536V14.6047ZM42.536 15.7209H41.4197V14.6047H42.536V15.7209ZM43.6523 15.7209H42.536V14.6047H43.6523V15.7209ZM44.7685 15.7209H43.6523V14.6047H44.7685V15.7209ZM44.7685 16.8372H43.6523V15.7209H44.7685V16.8372ZM44.7685 17.9535H43.6523V16.8372H44.7685V17.9535ZM44.7685 19.0698H43.6523V17.9535H44.7685V19.0698ZM44.7685 20.186H43.6523V19.0698H44.7685V20.186ZM44.7685 21.3023H43.6523V20.186H44.7685V21.3023ZM43.6523 21.3023H42.536V20.186H43.6523V21.3023ZM42.536 21.3023H41.4197V20.186H42.536V21.3023ZM42.536 20.186H41.4197V19.0698H42.536V20.186ZM42.536 19.0698H41.4197V17.9535H42.536V19.0698ZM42.536 17.9535H41.4197V16.8372H42.536V17.9535ZM43.6523 17.9535H42.536V16.8372H43.6523V17.9535ZM43.6523 16.8372H42.536V15.7209H43.6523V16.8372ZM43.6523 19.0698H42.536V17.9535H43.6523V19.0698ZM43.6523 20.186H42.536V19.0698H43.6523V20.186ZM42.536 16.8372H41.4197V15.7209H42.536V16.8372ZM42.536 22.4186H41.4197V21.3023H42.536V22.4186ZM42.536 23.5349H41.4197V22.4186H42.536V23.5349ZM42.536 24.6512H41.4197V23.5349H42.536V24.6512ZM42.536 25.7674H41.4197V24.6512H42.536V25.7674ZM44.7685 26.8837H43.6523V25.7674H44.7685V26.8837ZM43.6523 25.7674H42.536V24.6512H43.6523V25.7674ZM43.6523 24.6512H42.536V23.5349H43.6523V24.6512ZM43.6523 23.5349H42.536V22.4186H43.6523V23.5349ZM43.6523 22.4186H42.536V21.3023H43.6523V22.4186ZM44.7685 22.4186H43.6523V21.3023H44.7685V22.4186ZM44.7685 23.5349H43.6523V22.4186H44.7685V23.5349ZM44.7685 24.6512H43.6523V23.5349H44.7685V24.6512ZM44.7685 25.7674H43.6523V24.6512H44.7685V25.7674ZM43.6523 26.8837H42.536V25.7674H43.6523V26.8837ZM45.8848 14.6047H44.7685V13.4884H45.8848V14.6047ZM45.8848 15.7209H44.7685V14.6047H45.8848V15.7209ZM45.8848 16.8372H44.7685V15.7209H45.8848V16.8372ZM45.8848 17.9535H44.7685V16.8372H45.8848V17.9535ZM45.8848 19.0698H44.7685V17.9535H45.8848V19.0698ZM45.8848 20.186H44.7685V19.0698H45.8848V20.186ZM45.8848 21.3023H44.7685V20.186H45.8848V21.3023ZM45.8848 22.4186H44.7685V21.3023H45.8848V22.4186ZM45.8848 23.5349H44.7685V22.4186H45.8848V23.5349ZM45.8848 24.6512H44.7685V23.5349H45.8848V24.6512ZM45.8848 26.8837H44.7685V25.7674H45.8848V26.8837ZM45.8848 25.7674H44.7685V24.6512H45.8848V25.7674ZM44.7685 28H43.6523V26.8837H44.7685V28ZM43.6523 28H42.536V26.8837H43.6523V28ZM47.0011 25.7674H45.8848V24.6512H47.0011V25.7674ZM35.8383 10.1395H34.722V9.02326H35.8383V10.1395ZM34.722 10.1395H33.6057V9.02326H34.722V10.1395ZM36.9546 11.2558H35.8383V10.1395H36.9546V11.2558ZM35.8383 11.2558H34.722V10.1395H35.8383V11.2558ZM34.722 11.2558H33.6057V10.1395H34.722V11.2558ZM33.6057 11.2558H32.4895V10.1395H33.6057V11.2558ZM36.9546 12.3721H35.8383V11.2558H36.9546V12.3721ZM36.9546 13.4884H35.8383V12.3721H36.9546V13.4884ZM35.8383 13.4884H34.722V12.3721H35.8383V13.4884ZM35.8383 12.3721H34.722V11.2558H35.8383V12.3721ZM34.722 12.3721H33.6057V11.2558H34.722V12.3721ZM33.6057 12.3721H32.4895V11.2558H33.6057V12.3721ZM33.6057 13.4884H32.4895V12.3721H33.6057V13.4884ZM32.4895 12.3721H31.3732V11.2558H32.4895V12.3721ZM34.722 13.4884H33.6057V12.3721H34.722V13.4884ZM35.8383 14.6047H34.722V13.4884H35.8383V14.6047ZM34.722 14.6047H33.6057V13.4884H34.722V14.6047ZM33.6057 14.6047H32.4895V13.4884H33.6057V14.6047ZM33.6057 15.7209H32.4895V14.6047H33.6057V15.7209ZM34.722 15.7209H33.6057V14.6047H34.722V15.7209ZM35.8383 15.7209H34.722V14.6047H35.8383V15.7209ZM35.8383 16.8372H34.722V15.7209H35.8383V16.8372ZM35.8383 17.9535H34.722V16.8372H35.8383V17.9535ZM35.8383 19.0698H34.722V17.9535H35.8383V19.0698ZM35.8383 20.186H34.722V19.0698H35.8383V20.186ZM35.8383 21.3023H34.722V20.186H35.8383V21.3023ZM34.722 21.3023H33.6057V20.186H34.722V21.3023ZM33.6057 21.3023H32.4895V20.186H33.6057V21.3023ZM33.6057 20.186H32.4895V19.0698H33.6057V20.186ZM33.6057 19.0698H32.4895V17.9535H33.6057V19.0698ZM33.6057 17.9535H32.4895V16.8372H33.6057V17.9535ZM34.722 17.9535H33.6057V16.8372H34.722V17.9535ZM34.722 16.8372H33.6057V15.7209H34.722V16.8372ZM34.722 19.0698H33.6057V17.9535H34.722V19.0698ZM34.722 20.186H33.6057V19.0698H34.722V20.186ZM33.6057 16.8372H32.4895V15.7209H33.6057V16.8372ZM33.6057 22.4186H32.4895V21.3023H33.6057V22.4186ZM33.6057 23.5349H32.4895V22.4186H33.6057V23.5349ZM33.6057 24.6512H32.4895V23.5349H33.6057V24.6512ZM33.6057 25.7674H32.4895V24.6512H33.6057V25.7674ZM35.8383 26.8837H34.722V25.7674H35.8383V26.8837ZM34.722 25.7674H33.6057V24.6512H34.722V25.7674ZM34.722 24.6512H33.6057V23.5349H34.722V24.6512ZM34.722 23.5349H33.6057V22.4186H34.722V23.5349ZM34.722 22.4186H33.6057V21.3023H34.722V22.4186ZM35.8383 22.4186H34.722V21.3023H35.8383V22.4186ZM35.8383 23.5349H34.722V22.4186H35.8383V23.5349ZM35.8383 24.6512H34.722V23.5349H35.8383V24.6512ZM35.8383 25.7674H34.722V24.6512H35.8383V25.7674ZM34.722 26.8837H33.6057V25.7674H34.722V26.8837ZM36.9546 14.6047H35.8383V13.4884H36.9546V14.6047ZM36.9546 15.7209H35.8383V14.6047H36.9546V15.7209ZM36.9546 16.8372H35.8383V15.7209H36.9546V16.8372ZM36.9546 17.9535H35.8383V16.8372H36.9546V17.9535ZM36.9546 19.0698H35.8383V17.9535H36.9546V19.0698ZM36.9546 20.186H35.8383V19.0698H36.9546V20.186ZM36.9546 21.3023H35.8383V20.186H36.9546V21.3023ZM36.9546 22.4186H35.8383V21.3023H36.9546V22.4186ZM36.9546 23.5349H35.8383V22.4186H36.9546V23.5349ZM36.9546 24.6512H35.8383V23.5349H36.9546V24.6512ZM36.9546 26.8837H35.8383V25.7674H36.9546V26.8837ZM36.9546 25.7674H35.8383V24.6512H36.9546V25.7674ZM31.3732 13.4884H30.2569V12.3721H31.3732V13.4884ZM35.8383 28H34.722V26.8837H35.8383V28ZM34.722 28H33.6057V26.8837H34.722V28ZM38.0709 25.7674H36.9546V24.6512H38.0709V25.7674ZM32.4895 25.7674H31.3732V24.6512H32.4895V25.7674ZM48.1174 24.6512H47.0011V23.5349H48.1174V24.6512ZM47.0011 24.6512H45.8848V23.5349H47.0011V24.6512ZM40.3034 25.7674H39.1871V24.6512H40.3034V25.7674ZM39.1871 25.7674H38.0709V24.6512H39.1871V25.7674ZM38.0709 26.8837H36.9546V25.7674H38.0709V26.8837ZM36.9546 28H35.8383V26.8837H36.9546V28ZM41.4197 25.7674H40.3034V24.6512H41.4197V25.7674ZM38.0709 24.6512H36.9546V23.5349H38.0709V24.6512ZM48.1174 13.4884H47.0011V12.3721H48.1174V13.4884ZM47.0011 13.4884H45.8848V12.3721H47.0011V13.4884ZM32.4895 13.4884H31.3732V12.3721H32.4895V13.4884ZM31.3732 24.6512H30.2569V23.5349H31.3732V24.6512ZM32.4895 24.6512H31.3732V23.5349H32.4895V24.6512ZM41.4197 13.4884H40.3034V12.3721H41.4197V13.4884ZM31.3732 25.7674H30.2569V24.6512H31.3732V25.7674ZM39.1871 24.6512H38.0709V23.5349H39.1871V24.6512ZM40.3034 24.6512H39.1871V23.5349H40.3034V24.6512ZM41.4197 24.6512H40.3034V23.5349H41.4197V24.6512ZM48.1174 12.3721H47.0011V11.2558H48.1174V12.3721ZM39.1871 11.2558H40.3034V12.3721H39.1871V11.2558ZM39.1871 12.3721H40.3034V13.4884H39.1871V12.3721ZM41.4197 25.7674H42.536V26.8837H41.4197V25.7674ZM41.4197 26.8837H42.536V28H41.4197V26.8837ZM53.7151 2.32558H54.8314V3.44186H53.7151V2.32558ZM52.5988 2.32558H53.7151V3.44186H52.5988V2.32558ZM52.5988 3.44186H53.7151V4.55814H52.5988V3.44186ZM54.8314 1.2093H55.9477V2.32558H54.8314V1.2093ZM54.8314 0.0930243H55.9477V1.2093H54.8314V0.0930243ZM55.9477 0.0930243H57.064V1.2093H55.9477V0.0930243ZM55.9477 1.2093H57.064V2.32558H55.9477V1.2093ZM57.064 0.0930243H58.1802V1.2093H57.064V0.0930243ZM58.1802 1.2093H59.2965V2.32558H58.1802V1.2093ZM57.064 1.2093H58.1802V2.32558H57.064V1.2093ZM57.064 2.32558H58.1802V3.44186H57.064V2.32558ZM58.1802 2.32558H59.2965V3.44186H58.1802V2.32558ZM58.1802 3.44186H59.2965V4.55814H58.1802V3.44186ZM59.2965 2.32558H60.4128V3.44186H59.2965V2.32558ZM60.4128 2.32558H61.5291V3.44186H60.4128V2.32558ZM60.4128 3.44186H61.5291V4.55814H60.4128V3.44186ZM59.2965 3.44186H60.4128V4.55814H59.2965V3.44186ZM62.6453 4.55814H63.7616V5.67442H62.6453V4.55814ZM61.5291 4.55814H62.6453V5.67442H61.5291V4.55814ZM61.5291 5.67442H62.6453V6.7907H61.5291V5.67442ZM62.6453 5.67442H63.7616V6.7907H62.6453V5.67442ZM62.6453 6.7907H63.7616V7.90698H62.6453V6.7907ZM62.6453 7.90698H63.7616V9.02326H62.6453V7.90698ZM61.5291 7.90698H62.6453V9.02326H61.5291V7.90698ZM61.5291 6.7907H62.6453V7.90698H61.5291V6.7907ZM61.5291 9.02326H62.6453V10.1395H61.5291V9.02326ZM61.5291 10.1395H62.6453V11.2558H61.5291V10.1395ZM62.6453 10.1395H63.7616V11.2558H62.6453V10.1395ZM62.6453 9.02326H63.7616V10.1395H62.6453V9.02326ZM60.4128 11.2558H61.5291V12.3721H60.4128V11.2558ZM59.2965 11.2558H60.4128V12.3721H59.2965V11.2558ZM59.2965 12.3721H60.4128V13.4884H59.2965V12.3721ZM60.4128 12.3721H61.5291V13.4884H60.4128V12.3721ZM58.1802 11.2558H59.2965V12.3721H58.1802V11.2558ZM57.064 11.2558H58.1802V12.3721H57.064V11.2558ZM57.064 12.3721H58.1802V13.4884H57.064V12.3721ZM58.1802 12.3721H59.2965V13.4884H58.1802V12.3721ZM55.9477 13.4884H57.064V14.6047H55.9477V13.4884ZM54.8314 13.4884H55.9477V14.6047H54.8314V13.4884ZM54.8314 14.6047H55.9477V15.7209H54.8314V14.6047ZM61.5291 11.2558H62.6453V12.3721H61.5291V11.2558ZM62.6453 11.2558H63.7616V12.3721H62.6453V11.2558ZM62.6453 12.3721H63.7616V13.4884H62.6453V12.3721ZM61.5291 12.3721H62.6453V13.4884H61.5291V12.3721ZM61.5291 13.4884H62.6453V14.6047H61.5291V13.4884ZM61.5291 14.6047H62.6453V15.7209H61.5291V14.6047ZM62.6453 14.6047H63.7616V15.7209H62.6453V14.6047ZM62.6453 13.4884H63.7616V14.6047H62.6453V13.4884ZM65.9942 4.55814H67.1105V5.67442H65.9942V4.55814ZM65.9942 5.67442H67.1105V6.7907H65.9942V5.67442ZM65.9942 6.7907H67.1105V7.90698H65.9942V6.7907ZM65.9942 7.90698H67.1105V9.02326H65.9942V7.90698ZM65.9942 9.02326H67.1105V10.1395H65.9942V9.02326ZM65.9942 10.1395H67.1105V11.2558H65.9942V10.1395ZM65.9942 11.2558H67.1105V12.3721H65.9942V11.2558ZM65.9942 12.3721H67.1105V13.4884H65.9942V12.3721ZM65.9942 13.4884H67.1105V14.6047H65.9942V13.4884ZM65.9942 14.6047H67.1105V15.7209H65.9942V14.6047ZM67.1105 14.6047H68.2267V15.7209H67.1105V14.6047ZM67.1105 13.4884H68.2267V14.6047H67.1105V13.4884ZM67.1105 12.3721H68.2267V13.4884H67.1105V12.3721ZM67.1105 11.2558H68.2267V12.3721H67.1105V11.2558ZM67.1105 10.1395H68.2267V11.2558H67.1105V10.1395ZM67.1105 9.02326H68.2267V10.1395H67.1105V9.02326ZM67.1105 7.90698H68.2267V9.02326H67.1105V7.90698ZM67.1105 6.7907H68.2267V7.90698H67.1105V6.7907ZM67.1105 5.67442H68.2267V6.7907H67.1105V5.67442ZM67.1105 4.55814H68.2267V5.67442H67.1105V4.55814ZM68.2267 4.55814H69.343V5.67442H68.2267V4.55814ZM69.343 4.55814H70.4593V5.67442H69.343V4.55814ZM69.343 5.67442H70.4593V6.7907H69.343V5.67442ZM69.343 6.7907H70.4593V7.90698H69.343V6.7907ZM69.343 7.90698H70.4593V9.02326H69.343V7.90698ZM69.343 9.02326H70.4593V10.1395H69.343V9.02326ZM69.343 10.1395H70.4593V11.2558H69.343V10.1395ZM69.343 11.2558H70.4593V12.3721H69.343V11.2558ZM69.343 12.3721H70.4593V13.4884H69.343V12.3721ZM68.2267 12.3721H69.343V13.4884H68.2267V12.3721ZM68.2267 13.4884H69.343V14.6047H68.2267V13.4884ZM68.2267 14.6047H69.343V15.7209H68.2267V14.6047ZM69.343 14.6047H70.4593V15.7209H69.343V14.6047ZM69.343 13.4884H70.4593V14.6047H69.343V13.4884ZM68.2267 11.2558H69.343V12.3721H68.2267V11.2558ZM68.2267 10.1395H69.343V11.2558H68.2267V10.1395ZM68.2267 9.02326H69.343V10.1395H68.2267V9.02326ZM68.2267 7.90698H69.343V9.02326H68.2267V7.90698ZM68.2267 6.7907H69.343V7.90698H68.2267V6.7907ZM68.2267 5.67442H69.343V6.7907H68.2267V5.67442ZM68.2267 3.44186H69.343V4.55814H68.2267V3.44186ZM68.2267 2.32558H69.343V3.44186H68.2267V2.32558ZM69.343 2.32558H70.4593V3.44186H69.343V2.32558ZM69.343 3.44186H70.4593V4.55814H69.343V3.44186ZM70.4593 0.0930243H71.5756V1.2093H70.4593V0.0930243ZM71.5756 0.0930243H72.6919V1.2093H71.5756V0.0930243ZM71.5756 1.2093H72.6919V2.32558H71.5756V1.2093ZM71.5756 2.32558H72.6919V3.44186H71.5756V2.32558ZM70.4593 2.32558H71.5756V3.44186H70.4593V2.32558ZM70.4593 1.2093H71.5756V2.32558H70.4593V1.2093ZM70.4593 3.44186H71.5756V4.55814H70.4593V3.44186ZM71.5756 3.44186H72.6919V4.55814H71.5756V3.44186ZM72.6919 0.0930243H73.8081V1.2093H72.6919V0.0930243ZM73.8081 0.0930243H74.9244V1.2093H73.8081V0.0930243ZM73.8081 1.2093H74.9244V2.32558H73.8081V1.2093ZM73.8081 2.32558H74.9244V3.44186H73.8081V2.32558ZM73.8081 3.44186H74.9244V4.55814H73.8081V3.44186ZM72.6919 3.44186H73.8081V4.55814H72.6919V3.44186ZM72.6919 2.32558H73.8081V3.44186H72.6919V2.32558ZM72.6919 1.2093H73.8081V2.32558H72.6919V1.2093ZM74.9244 0.0930243H76.0407V1.2093H74.9244V0.0930243ZM76.0407 0.0930243H77.157V1.2093H76.0407V0.0930243ZM76.0407 1.2093H77.157V2.32558H76.0407V1.2093ZM74.9244 1.2093H76.0407V2.32558H74.9244V1.2093ZM77.157 0.0930243H78.2733V1.2093H77.157V0.0930243ZM78.2733 0.0930243H79.3895V1.2093H78.2733V0.0930243ZM77.157 1.2093H78.2733V2.32558H77.157V1.2093ZM74.9244 2.32558H76.0407V3.44186H74.9244V2.32558ZM76.0407 2.32558H77.157V3.44186H76.0407V2.32558ZM74.9244 3.44186H76.0407V4.55814H74.9244V3.44186ZM70.4593 11.2558H71.5756V12.3721H70.4593V11.2558ZM71.5756 11.2558H72.6919V12.3721H71.5756V11.2558ZM71.5756 12.3721H72.6919V13.4884H71.5756V12.3721ZM70.4593 12.3721H71.5756V13.4884H70.4593V12.3721ZM72.6919 11.2558H73.8081V12.3721H72.6919V11.2558ZM73.8081 11.2558H74.9244V12.3721H73.8081V11.2558ZM73.8081 12.3721H74.9244V13.4884H73.8081V12.3721ZM72.6919 12.3721H73.8081V13.4884H72.6919V12.3721ZM55.9477 24.6512H57.064V25.7674H55.9477V24.6512ZM55.9477 23.5349H57.064V24.6512H55.9477V23.5349ZM53.7151 23.5349H54.8314V24.6512H53.7151V23.5349ZM52.5988 23.5349H53.7151V24.6512H52.5988V23.5349ZM52.5988 24.6512H53.7151V25.7674H52.5988V24.6512ZM51.4826 25.7674H52.5988V26.8837H51.4826V25.7674ZM50.3663 25.7674H51.4826V26.8837H50.3663V25.7674ZM50.3663 26.8837H51.4826V28H50.3663V26.8837ZM58.1802 23.5349H59.2965V24.6512H58.1802V23.5349ZM58.1802 24.6512H59.2965V25.7674H58.1802V24.6512ZM57.064 24.6512H58.1802V25.7674H57.064V24.6512ZM57.064 23.5349H58.1802V24.6512H57.064V23.5349ZM57.064 25.7674H58.1802V26.8837H57.064V25.7674ZM58.1802 26.8837H59.2965V28H58.1802V26.8837ZM58.1802 25.7674H59.2965V26.8837H58.1802V25.7674ZM59.2965 24.6512H60.4128V25.7674H59.2965V24.6512ZM59.2965 25.7674H60.4128V26.8837H59.2965V25.7674ZM59.2965 26.8837H60.4128V28H59.2965V26.8837ZM60.4128 26.8837H61.5291V28H60.4128V26.8837ZM60.4128 25.7674H61.5291V26.8837H60.4128V25.7674ZM61.5291 25.7674H62.6453V26.8837H61.5291V25.7674ZM62.6453 25.7674H63.7616V26.8837H62.6453V25.7674ZM62.6453 26.8837H63.7616V28H62.6453V26.8837ZM61.5291 26.8837H62.6453V28H61.5291V26.8837ZM63.7616 25.7674H64.8779V26.8837H63.7616V25.7674ZM63.7616 26.8837H64.8779V28H63.7616V26.8837ZM64.8779 25.7674H65.9942V26.8837H64.8779V25.7674ZM62.6453 23.5349H63.7616V24.6512H62.6453V23.5349ZM61.5291 23.5349H62.6453V24.6512H61.5291V23.5349ZM61.5291 24.6512H62.6453V25.7674H61.5291V24.6512ZM62.6453 24.6512H63.7616V25.7674H62.6453V24.6512ZM62.6453 22.4186H63.7616V23.5349H62.6453V22.4186ZM62.6453 21.3023H63.7616V22.4186H62.6453V21.3023ZM61.5291 21.3023H62.6453V22.4186H61.5291V21.3023ZM61.5291 22.4186H62.6453V23.5349H61.5291V22.4186ZM61.5291 20.186H62.6453V21.3023H61.5291V20.186ZM61.5291 19.0698H62.6453V20.186H61.5291V19.0698ZM61.5291 17.9535H62.6453V19.0698H61.5291V17.9535ZM61.5291 16.8372H62.6453V17.9535H61.5291V16.8372ZM62.6453 16.8372H63.7616V17.9535H62.6453V16.8372ZM62.6453 15.7209H63.7616V16.8372H62.6453V15.7209ZM62.6453 17.9535H63.7616V19.0698H62.6453V17.9535ZM62.6453 19.0698H63.7616V20.186H62.6453V19.0698ZM62.6453 20.186H63.7616V21.3023H62.6453V20.186ZM61.5291 15.7209H62.6453V16.8372H61.5291V15.7209ZM65.9942 24.6512H67.1105V25.7674H65.9942V24.6512ZM65.9942 23.5349H67.1105V24.6512H65.9942V23.5349ZM67.1105 23.5349H68.2267V24.6512H67.1105V23.5349ZM68.2267 22.4186H69.343V23.5349H68.2267V22.4186ZM68.2267 21.3023H69.343V22.4186H68.2267V21.3023ZM69.343 21.3023H70.4593V22.4186H69.343V21.3023ZM69.343 20.186H70.4593V21.3023H69.343V20.186ZM69.343 19.0698H70.4593V20.186H69.343V19.0698ZM69.343 17.9535H70.4593V19.0698H69.343V17.9535ZM69.343 16.8372H70.4593V17.9535H69.343V16.8372ZM69.343 15.7209H70.4593V16.8372H69.343V15.7209ZM68.2267 15.7209H69.343V16.8372H68.2267V15.7209ZM68.2267 16.8372H69.343V17.9535H68.2267V16.8372ZM68.2267 17.9535H69.343V19.0698H68.2267V17.9535ZM68.2267 19.0698H69.343V20.186H68.2267V19.0698ZM68.2267 20.186H69.343V21.3023H68.2267V20.186ZM67.1105 20.186H68.2267V21.3023H67.1105V20.186ZM67.1105 19.0698H68.2267V20.186H67.1105V19.0698ZM67.1105 17.9535H68.2267V19.0698H67.1105V17.9535ZM67.1105 16.8372H68.2267V17.9535H67.1105V16.8372ZM67.1105 15.7209H68.2267V16.8372H67.1105V15.7209ZM67.1105 21.3023H68.2267V22.4186H67.1105V21.3023ZM67.1105 22.4186H68.2267V23.5349H67.1105V22.4186ZM65.9942 22.4186H67.1105V23.5349H65.9942V22.4186ZM65.9942 21.3023H67.1105V22.4186H65.9942V21.3023ZM65.9942 20.186H67.1105V21.3023H65.9942V20.186ZM65.9942 19.0698H67.1105V20.186H65.9942V19.0698ZM65.9942 15.7209H67.1105V16.8372H65.9942V15.7209ZM65.9942 16.8372H67.1105V17.9535H65.9942V16.8372ZM65.9942 17.9535H67.1105V19.0698H65.9942V17.9535ZM51.4826 24.6512H52.5988V25.7674H51.4826V24.6512ZM64.8779 24.6512H65.9942V25.7674H64.8779V24.6512ZM55.9477 12.3721H57.064V13.4884H55.9477V12.3721ZM53.7151 1.2093H54.8314V2.32558H53.7151V1.2093ZM58.1802 0.0930243H59.2965V1.2093H58.1802V0.0930243ZM59.2965 1.2093H60.4128V2.32558H59.2965V1.2093ZM62.6453 3.44186H63.7616V4.55814H62.6453V3.44186ZM65.9942 3.44186H67.1105V4.55814H65.9942V3.44186ZM60.4128 4.55814H61.5291V5.67442H60.4128V4.55814ZM61.5291 3.44186H62.6453V4.55814H61.5291V3.44186ZM59.2965 4.55814H60.4128V5.67442H59.2965V4.55814ZM60.4128 5.67442H61.5291V6.7907H60.4128V5.67442ZM59.2965 0.0930243H60.4128V1.2093H59.2965V0.0930243ZM60.4128 1.2093H61.5291V2.32558H60.4128V1.2093ZM61.5291 2.32558H62.6453V3.44186H61.5291V2.32558ZM67.1105 3.44186H68.2267V4.55814H67.1105V3.44186ZM69.343 1.2093H70.4593V2.32558H69.343V1.2093ZM67.1105 2.32558H68.2267V3.44186H67.1105V2.32558ZM68.2267 1.2093H69.343V2.32558H68.2267V1.2093ZM69.343 0.0930243H70.4593V1.2093H69.343V0.0930243ZM60.4128 24.6512H61.5291V25.7674H60.4128V24.6512ZM60.4128 23.5349H61.5291V24.6512H60.4128V23.5349ZM59.2965 23.5349H60.4128V24.6512H59.2965V23.5349ZM59.2965 22.4186H60.4128V23.5349H59.2965V22.4186ZM58.1802 22.4186H59.2965V23.5349H58.1802V22.4186ZM57.064 22.4186H58.1802V23.5349H57.064V22.4186ZM55.9477 22.4186H57.064V23.5349H55.9477V22.4186ZM54.8314 22.4186H55.9477V23.5349H54.8314V22.4186ZM53.7151 22.4186H54.8314V23.5349H53.7151V22.4186ZM54.8314 23.5349H55.9477V24.6512H54.8314V23.5349ZM58.1802 21.3023H59.2965V22.4186H58.1802V21.3023ZM57.064 21.3023H58.1802V22.4186H57.064V21.3023ZM55.9477 21.3023H57.064V22.4186H55.9477V21.3023ZM54.8314 21.3023H55.9477V22.4186H54.8314V21.3023ZM57.064 20.186H58.1802V21.3023H57.064V20.186ZM55.9477 20.186H57.064V21.3023H55.9477V20.186ZM55.9477 2.32558H57.064V3.44186H55.9477V2.32558ZM57.064 3.44186H58.1802V4.55814H57.064V3.44186ZM58.1802 4.55814H59.2965V5.67442H58.1802V4.55814ZM59.2965 5.67442H60.4128V6.7907H59.2965V5.67442ZM60.4128 6.7907H61.5291V7.90698H60.4128V6.7907ZM63.7616 3.44186H64.8779V4.55814H63.7616V3.44186ZM64.8779 3.44186H65.9942V4.55814H64.8779V3.44186ZM64.8779 2.32558H65.9942V3.44186H64.8779V2.32558ZM63.7616 2.32558H64.8779V3.44186H63.7616V2.32558ZM63.7616 24.6512H64.8779V25.7674H63.7616V24.6512ZM64.8779 23.5349H65.9942V24.6512H64.8779V23.5349ZM84.9807 9.02326H86.097V10.1395H84.9807V9.02326ZM84.9807 10.1395H86.097V11.2558H84.9807V10.1395ZM83.8645 10.1395H84.9807V11.2558H83.8645V10.1395ZM86.097 9.02326H87.2133V10.1395H86.097V9.02326ZM87.2133 10.1395H88.3296V11.2558H87.2133V10.1395ZM87.2133 11.2558H88.3296V12.3721H87.2133V11.2558ZM86.097 11.2558H87.2133V12.3721H86.097V11.2558ZM86.097 10.1395H87.2133V11.2558H86.097V10.1395ZM82.7482 11.2558H83.8645V12.3721H82.7482V11.2558ZM81.6319 11.2558H82.7482V12.3721H81.6319V11.2558ZM81.6319 12.3721H82.7482V13.4884H81.6319V12.3721ZM82.7482 12.3721H83.8645V13.4884H82.7482V12.3721ZM84.9807 11.2558H86.097V12.3721H84.9807V11.2558ZM83.8645 11.2558H84.9807V12.3721H83.8645V11.2558ZM83.8645 12.3721H84.9807V13.4884H83.8645V12.3721ZM84.9807 12.3721H86.097V13.4884H84.9807V12.3721ZM86.097 12.3721H87.2133V13.4884H86.097V12.3721ZM87.2133 12.3721H88.3296V13.4884H87.2133V12.3721ZM88.3296 11.2558H89.4459V12.3721H88.3296V11.2558ZM89.4459 11.2558H90.5621V12.3721H89.4459V11.2558ZM89.4459 12.3721H90.5621V13.4884H89.4459V12.3721ZM88.3296 12.3721H89.4459V13.4884H88.3296V12.3721ZM90.5621 11.2558H91.6784V12.3721H90.5621V11.2558ZM91.6784 11.2558H92.7947V12.3721H91.6784V11.2558ZM91.6784 12.3721H92.7947V13.4884H91.6784V12.3721ZM90.5621 12.3721H91.6784V13.4884H90.5621V12.3721ZM93.911 9.02326H95.0273V10.1395H93.911V9.02326ZM93.911 10.1395H95.0273V11.2558H93.911V10.1395ZM92.7947 10.1395H93.911V11.2558H92.7947V10.1395ZM95.0273 9.02326H96.1435V10.1395H95.0273V9.02326ZM96.1435 10.1395H97.2598V11.2558H96.1435V10.1395ZM95.0273 10.1395H96.1435V11.2558H95.0273V10.1395ZM97.2598 11.2558H98.3761V12.3721H97.2598V11.2558ZM98.3761 11.2558H99.4924V12.3721H98.3761V11.2558ZM98.3761 12.3721H99.4924V13.4884H98.3761V12.3721ZM97.2598 12.3721H98.3761V13.4884H97.2598V12.3721ZM97.2598 13.4884H98.3761V14.6047H97.2598V13.4884ZM98.3761 13.4884H99.4924V14.6047H98.3761V13.4884ZM98.3761 14.6047H99.4924V15.7209H98.3761V14.6047ZM97.2598 14.6047H98.3761V15.7209H97.2598V14.6047ZM99.4924 11.2558H100.609V12.3721H99.4924V11.2558ZM100.609 11.2558H101.725V12.3721H100.609V11.2558ZM100.609 12.3721H101.725V13.4884H100.609V12.3721ZM99.4924 12.3721H100.609V13.4884H99.4924V12.3721ZM96.1435 11.2558H97.2598V12.3721H96.1435V11.2558ZM95.0273 11.2558H96.1435V12.3721H95.0273V11.2558ZM93.911 11.2558H95.0273V12.3721H93.911V11.2558ZM92.7947 11.2558H93.911V12.3721H92.7947V11.2558ZM92.7947 12.3721H93.911V13.4884H92.7947V12.3721ZM93.911 12.3721H95.0273V13.4884H93.911V12.3721ZM95.0273 12.3721H96.1435V13.4884H95.0273V12.3721ZM96.1435 12.3721H97.2598V13.4884H96.1435V12.3721ZM95.0273 13.4884H96.1435V14.6047H95.0273V13.4884ZM95.0273 14.6047H96.1435V15.7209H95.0273V14.6047ZM96.1435 14.6047H97.2598V15.7209H96.1435V14.6047ZM96.1435 13.4884H97.2598V14.6047H96.1435V13.4884ZM95.0273 15.7209H96.1435V16.8372H95.0273V15.7209ZM95.0273 16.8372H96.1435V17.9535H95.0273V16.8372ZM96.1435 16.8372H97.2598V17.9535H96.1435V16.8372ZM96.1435 17.9535H97.2598V19.0698H96.1435V17.9535ZM97.2598 17.9535H98.3761V19.0698H97.2598V17.9535ZM97.2598 16.8372H98.3761V17.9535H97.2598V16.8372ZM98.3761 16.8372H99.4924V17.9535H98.3761V16.8372ZM98.3761 15.7209H99.4924V16.8372H98.3761V15.7209ZM97.2598 15.7209H98.3761V16.8372H97.2598V15.7209ZM96.1435 15.7209H97.2598V16.8372H96.1435V15.7209ZM95.0273 17.9535H96.1435V19.0698H95.0273V17.9535ZM98.3761 17.9535H99.4924V19.0698H98.3761V17.9535ZM86.097 13.4884H87.2133V14.6047H86.097V13.4884ZM87.2133 13.4884H88.3296V14.6047H87.2133V13.4884ZM87.2133 14.6047H88.3296V15.7209H87.2133V14.6047ZM86.097 14.6047H87.2133V15.7209H86.097V14.6047ZM88.3296 13.4884H89.4459V14.6047H88.3296V13.4884ZM89.4459 13.4884H90.5621V14.6047H89.4459V13.4884ZM89.4459 14.6047H90.5621V15.7209H89.4459V14.6047ZM88.3296 14.6047H89.4459V15.7209H88.3296V14.6047ZM87.2133 15.7209H88.3296V16.8372H87.2133V15.7209ZM86.097 15.7209H87.2133V16.8372H86.097V15.7209ZM86.097 16.8372H87.2133V17.9535H86.097V16.8372ZM86.097 17.9535H87.2133V19.0698H86.097V17.9535ZM87.2133 17.9535H88.3296V19.0698H87.2133V17.9535ZM88.3296 17.9535H89.4459V19.0698H88.3296V17.9535ZM89.4459 17.9535H90.5621V19.0698H89.4459V17.9535ZM89.4459 16.8372H90.5621V17.9535H89.4459V16.8372ZM89.4459 15.7209H90.5621V16.8372H89.4459V15.7209ZM88.3296 15.7209H89.4459V16.8372H88.3296V15.7209ZM88.3296 16.8372H89.4459V17.9535H88.3296V16.8372ZM87.2133 16.8372H88.3296V17.9535H87.2133V16.8372ZM95.0273 19.0698H96.1435V20.186H95.0273V19.0698ZM95.0273 20.186H96.1435V21.3023H95.0273V20.186ZM96.1435 20.186H97.2598V21.3023H96.1435V20.186ZM96.1435 19.0698H97.2598V20.186H96.1435V19.0698ZM93.911 21.3023H95.0273V22.4186H93.911V21.3023ZM95.0273 21.3023H96.1435V22.4186H95.0273V21.3023ZM96.1435 21.3023H97.2598V22.4186H96.1435V21.3023ZM97.2598 21.3023H98.3761V22.4186H97.2598V21.3023ZM98.3761 21.3023H99.4924V22.4186H98.3761V21.3023ZM98.3761 20.186H99.4924V21.3023H98.3761V20.186ZM98.3761 19.0698H99.4924V20.186H98.3761V19.0698ZM97.2598 19.0698H98.3761V20.186H97.2598V19.0698ZM97.2598 20.186H98.3761V21.3023H97.2598V20.186ZM96.1435 22.4186H97.2598V23.5349H96.1435V22.4186ZM95.0273 22.4186H96.1435V23.5349H95.0273V22.4186ZM95.0273 23.5349H96.1435V24.6512H95.0273V23.5349ZM96.1435 23.5349H97.2598V24.6512H96.1435V23.5349ZM95.0273 24.6512H96.1435V25.7674H95.0273V24.6512ZM96.1435 24.6512H97.2598V25.7674H96.1435V24.6512ZM95.0273 25.7674H96.1435V26.8837H95.0273V25.7674ZM96.1435 25.7674H97.2598V26.8837H96.1435V25.7674ZM98.3761 22.4186H99.4924V23.5349H98.3761V22.4186ZM97.2598 22.4186H98.3761V23.5349H97.2598V22.4186ZM93.911 22.4186H95.0273V23.5349H93.911V22.4186ZM92.7947 22.4186H93.911V23.5349H92.7947V22.4186ZM95.0273 26.8837H96.1435V28H95.0273V26.8837ZM93.911 25.7674H95.0273V26.8837H93.911V25.7674ZM92.7947 25.7674H93.911V26.8837H92.7947V25.7674ZM92.7947 26.8837H93.911V28H92.7947V26.8837ZM93.911 26.8837H95.0273V28H93.911V26.8837ZM91.6784 25.7674H92.7947V26.8837H91.6784V25.7674ZM90.5621 25.7674H91.6784V26.8837H90.5621V25.7674ZM90.5621 26.8837H91.6784V28H90.5621V26.8837ZM91.6784 26.8837H92.7947V28H91.6784V26.8837ZM89.4459 25.7674H90.5621V26.8837H89.4459V25.7674ZM88.3296 25.7674H89.4459V26.8837H88.3296V25.7674ZM88.3296 26.8837H89.4459V28H88.3296V26.8837ZM89.4459 26.8837H90.5621V28H89.4459V26.8837ZM89.4459 24.6512H90.5621V25.7674H89.4459V24.6512ZM89.4459 23.5349H90.5621V24.6512H89.4459V23.5349ZM88.3296 23.5349H89.4459V24.6512H88.3296V23.5349ZM88.3296 24.6512H89.4459V25.7674H88.3296V24.6512ZM89.4459 22.4186H90.5621V23.5349H89.4459V22.4186ZM89.4459 21.3023H90.5621V22.4186H89.4459V21.3023ZM88.3296 21.3023H89.4459V22.4186H88.3296V21.3023ZM88.3296 22.4186H89.4459V23.5349H88.3296V22.4186ZM89.4459 20.186H90.5621V21.3023H89.4459V20.186ZM89.4459 19.0698H90.5621V20.186H89.4459V19.0698ZM88.3296 19.0698H89.4459V20.186H88.3296V19.0698ZM88.3296 20.186H89.4459V21.3023H88.3296V20.186ZM87.2133 19.0698H88.3296V20.186H87.2133V19.0698ZM87.2133 20.186H88.3296V21.3023H87.2133V20.186ZM87.2133 21.3023H88.3296V22.4186H87.2133V21.3023ZM86.097 19.0698H87.2133V20.186H86.097V19.0698ZM86.097 20.186H87.2133V21.3023H86.097V20.186ZM86.097 21.3023H87.2133V22.4186H86.097V21.3023ZM86.097 22.4186H87.2133V23.5349H86.097V22.4186ZM86.097 23.5349H87.2133V24.6512H86.097V23.5349ZM86.097 24.6512H87.2133V25.7674H86.097V24.6512ZM87.2133 24.6512H88.3296V25.7674H87.2133V24.6512ZM87.2133 23.5349H88.3296V24.6512H87.2133V23.5349ZM87.2133 22.4186H88.3296V23.5349H87.2133V22.4186ZM86.097 25.7674H87.2133V26.8837H86.097V25.7674ZM87.2133 25.7674H88.3296V26.8837H87.2133V25.7674ZM87.2133 26.8837H88.3296V28H87.2133V26.8837ZM86.097 26.8837H87.2133V28H86.097V26.8837ZM84.9807 26.8837H86.097V28H84.9807V26.8837ZM83.8645 26.8837H84.9807V28H83.8645V26.8837ZM84.9807 25.7674H86.097V26.8837H84.9807V25.7674ZM82.7482 28H83.8645V29.1163H82.7482V28ZM81.6319 29.1163H82.7482V30.2326H81.6319V29.1163ZM82.7482 29.1163H83.8645V30.2326H82.7482V29.1163ZM82.7482 30.2326H83.8645V31.3488H82.7482V30.2326ZM82.7482 31.3488H83.8645V32.4651H82.7482V31.3488ZM81.6319 31.3488H82.7482V32.4651H81.6319V31.3488ZM81.6319 30.2326H82.7482V31.3488H81.6319V30.2326ZM84.9807 32.4651H86.097V33.5814H84.9807V32.4651ZM84.9807 33.5814H86.097V34.6977H84.9807V33.5814ZM83.8645 32.4651H84.9807V33.5814H83.8645V32.4651ZM83.8645 33.5814H84.9807V34.6977H83.8645V33.5814ZM86.097 33.5814H87.2133V34.6977H86.097V33.5814ZM87.2133 32.4651H88.3296V33.5814H87.2133V32.4651ZM88.3296 32.4651H89.4459V33.5814H88.3296V32.4651ZM89.4459 32.4651H90.5621V33.5814H89.4459V32.4651ZM86.097 32.4651H87.2133V33.5814H86.097V32.4651ZM87.2133 33.5814H88.3296V34.6977H87.2133V33.5814ZM88.3296 33.5814H89.4459V34.6977H88.3296V33.5814ZM89.4459 33.5814H90.5621V34.6977H89.4459V33.5814ZM90.5621 33.5814H91.6784V34.6977H90.5621V33.5814ZM90.5621 32.4651H91.6784V33.5814H90.5621V32.4651ZM90.5621 31.3488H91.6784V32.4651H90.5621V31.3488ZM91.6784 31.3488H92.7947V32.4651H91.6784V31.3488ZM91.6784 30.2326H92.7947V31.3488H91.6784V30.2326ZM92.7947 31.3488H93.911V32.4651H92.7947V31.3488ZM93.911 31.3488H95.0273V32.4651H93.911V31.3488ZM93.911 30.2326H95.0273V31.3488H93.911V30.2326ZM92.7947 30.2326H93.911V31.3488H92.7947V30.2326ZM95.0273 30.2326H96.1435V31.3488H95.0273V30.2326ZM96.1435 30.2326H97.2598V31.3488H96.1435V30.2326ZM96.1435 31.3488H97.2598V32.4651H96.1435V31.3488ZM95.0273 31.3488H96.1435V32.4651H95.0273V31.3488ZM93.911 32.4651H95.0273V33.5814H93.911V32.4651ZM92.7947 32.4651H93.911V33.5814H92.7947V32.4651ZM92.7947 33.5814H93.911V34.6977H92.7947V33.5814ZM93.911 33.5814H95.0273V34.6977H93.911V33.5814ZM91.6784 32.4651H92.7947V33.5814H91.6784V32.4651ZM91.6784 33.5814H92.7947V34.6977H91.6784V33.5814ZM84.9807 28H86.097V29.1163H84.9807V28ZM83.8645 28H84.9807V29.1163H83.8645V28ZM83.8645 29.1163H84.9807V30.2326H83.8645V29.1163ZM84.9807 29.1163H86.097V30.2326H84.9807V29.1163ZM87.2133 28H88.3296V29.1163H87.2133V28ZM86.097 29.1163H87.2133V30.2326H86.097V29.1163ZM86.097 28H87.2133V29.1163H86.097V28ZM95.0273 32.4651H96.1435V33.5814H95.0273V32.4651ZM82.7482 32.4651H83.8645V33.5814H82.7482V32.4651ZM83.8645 31.3488H84.9807V32.4651H83.8645V31.3488ZM83.8645 30.2326H84.9807V31.3488H83.8645V30.2326ZM84.9807 30.2326H86.097V31.3488H84.9807V30.2326ZM97.2598 23.5349H98.3761V24.6512H97.2598V23.5349ZM97.2598 24.6512H98.3761V25.7674H97.2598V24.6512ZM98.3761 23.5349H99.4924V24.6512H98.3761V23.5349Z" fill="black"/>
</svg>
